<mxfile host="app.diagrams.net" modified="2023-06-22T05:40:10.238Z" agent="Mozilla/5.0 (X11; Linux x86_64) AppleWebKit/537.36 (KHTML, like Gecko) Chrome/108.0.0.0 Safari/537.36" etag="am0QhMRvDtfBj_JSmVoy" version="21.3.2" type="device">
  <diagram name="Page-1" id="oz0A9H_iUyf6mrENjPWL">
    <mxGraphModel dx="1017" dy="485" grid="1" gridSize="10" guides="1" tooltips="1" connect="1" arrows="1" fold="1" page="1" pageScale="1" pageWidth="850" pageHeight="1100" math="1" shadow="0">
      <root>
        <mxCell id="0" />
        <mxCell id="1" parent="0" />
        <mxCell id="Y5rtS3jXBM4obcAvPPzV-1" value="&lt;font style=&quot;font-size: 25px;&quot;&gt;$$ f( \bullet&amp;nbsp;) $$&lt;/font&gt;" style="rounded=0;whiteSpace=wrap;html=1;fontSize=18;" vertex="1" parent="1">
          <mxGeometry x="310" y="180" width="140" height="165" as="geometry" />
        </mxCell>
        <mxCell id="Y5rtS3jXBM4obcAvPPzV-2" value="" style="endArrow=classic;html=1;rounded=0;fontSize=25;" edge="1" parent="1">
          <mxGeometry width="50" height="50" relative="1" as="geometry">
            <mxPoint x="200" y="189" as="sourcePoint" />
            <mxPoint x="310" y="189" as="targetPoint" />
          </mxGeometry>
        </mxCell>
        <mxCell id="Y5rtS3jXBM4obcAvPPzV-3" value="" style="endArrow=classic;html=1;rounded=0;fontSize=25;" edge="1" parent="1">
          <mxGeometry width="50" height="50" relative="1" as="geometry">
            <mxPoint x="220" y="224" as="sourcePoint" />
            <mxPoint x="310" y="224" as="targetPoint" />
          </mxGeometry>
        </mxCell>
        <mxCell id="Y5rtS3jXBM4obcAvPPzV-4" value="" style="endArrow=classic;html=1;rounded=0;fontSize=25;" edge="1" parent="1">
          <mxGeometry width="50" height="50" relative="1" as="geometry">
            <mxPoint x="240" y="262" as="sourcePoint" />
            <mxPoint x="310" y="262" as="targetPoint" />
          </mxGeometry>
        </mxCell>
        <mxCell id="Y5rtS3jXBM4obcAvPPzV-5" value="" style="endArrow=classic;html=1;rounded=0;fontSize=25;" edge="1" parent="1">
          <mxGeometry width="50" height="50" relative="1" as="geometry">
            <mxPoint x="260" y="298" as="sourcePoint" />
            <mxPoint x="310" y="298" as="targetPoint" />
          </mxGeometry>
        </mxCell>
        <mxCell id="Y5rtS3jXBM4obcAvPPzV-6" value="" style="endArrow=classic;html=1;rounded=0;fontSize=25;" edge="1" parent="1">
          <mxGeometry width="50" height="50" relative="1" as="geometry">
            <mxPoint x="280" y="330" as="sourcePoint" />
            <mxPoint x="310" y="330" as="targetPoint" />
          </mxGeometry>
        </mxCell>
        <mxCell id="Y5rtS3jXBM4obcAvPPzV-7" value="&lt;font style=&quot;font-size: 25px;&quot;&gt;$$v$$&lt;/font&gt;" style="text;html=1;strokeColor=none;fillColor=none;align=center;verticalAlign=middle;whiteSpace=wrap;rounded=0;fontSize=25;" vertex="1" parent="1">
          <mxGeometry x="252.5" y="163" width="32.5" height="20" as="geometry" />
        </mxCell>
        <mxCell id="Y5rtS3jXBM4obcAvPPzV-8" value="&lt;font style=&quot;font-size: 25px;&quot;&gt;$$v_{\text{lead}}$$&lt;/font&gt;" style="text;html=1;strokeColor=none;fillColor=none;align=center;verticalAlign=middle;whiteSpace=wrap;rounded=0;fontSize=25;" vertex="1" parent="1">
          <mxGeometry x="240.5" y="189" width="60" height="30" as="geometry" />
        </mxCell>
        <mxCell id="Y5rtS3jXBM4obcAvPPzV-9" value="$$x_{\text{rel}}$$" style="text;html=1;strokeColor=none;fillColor=none;align=center;verticalAlign=middle;whiteSpace=wrap;rounded=0;fontSize=25;" vertex="1" parent="1">
          <mxGeometry x="241.5" y="235" width="60" height="14" as="geometry" />
        </mxCell>
        <mxCell id="Y5rtS3jXBM4obcAvPPzV-11" value="$$v_{\text{rel}}$$" style="text;html=1;strokeColor=none;fillColor=none;align=center;verticalAlign=middle;whiteSpace=wrap;rounded=0;fontSize=25;" vertex="1" parent="1">
          <mxGeometry x="262" y="264" width="25" height="30" as="geometry" />
        </mxCell>
        <mxCell id="Y5rtS3jXBM4obcAvPPzV-12" value="$$a$$" style="text;html=1;strokeColor=none;fillColor=none;align=center;verticalAlign=middle;whiteSpace=wrap;rounded=0;fontSize=25;" vertex="1" parent="1">
          <mxGeometry x="278" y="302" width="15" height="22" as="geometry" />
        </mxCell>
        <mxCell id="Y5rtS3jXBM4obcAvPPzV-13" value="" style="rounded=0;whiteSpace=wrap;html=1;fontSize=18;" vertex="1" parent="1">
          <mxGeometry x="540" y="180" width="200" height="164" as="geometry" />
        </mxCell>
        <mxCell id="Y5rtS3jXBM4obcAvPPzV-18" value="" style="shape=image;verticalLabelPosition=bottom;labelBackgroundColor=default;verticalAlign=top;aspect=fixed;imageAspect=0;image=data:image/png,iVBORw0KGgoAAAANSUhEUgAAALEAAACmCAYAAACV+m7mAAAABHNCSVQICAgIfAhkiAAAABl0RVh0U29mdHdhcmUAZ25vbWUtc2NyZWVuc2hvdO8Dvz4AAAAtdEVYdENyZWF0aW9uIFRpbWUAV2VkIDIxIEp1biAyMDIzIDExOjE0OjMyIFBNIENEVMkgToMAAAyCSURBVHic7d19VFRlHgfw78wQb4MwvKjEIpaKuR1TMRcURDIyJZWx3ezs8WxamayVbO2ueuqczlqnl+0o2W6aesiipUJ3yWQQJMGXAJGgFEPLEl+JfEHeZWB4mbn7l2WlcGfmufPcZ+b3+Vf43R/zfM+d673PfR6NJEkSCBGYlncDhDiLQkyERyEmwqMQE+FRiInwKMREeBRiIjwKMREehZgIj0JMhEchJsLz4t2AEk6ersfR43U4/u0ZnKu/iAuXmtDc0o5uSw8sPb1w9+kiGo0Gvj7e8PP1QWhIECLCw3Bb1K0YP24UJo2PxtjRUbxbZErjDhOAJElC1ZFvsLOwFJ9VHMGlxmbeLala+LBQ3JMwGQ/OTULc5Duh0Wh4t+QUoUNs6enF//L24Z0PTahvuMy7HSGNjAzHE39KxcMLkuHr4827HYcIGWKbTcJ/8/YiY1MOmprbeLfjFsJCDVj19CI8bLwPWq1YZ2bhQvxt3Xn8fc1bOH7iDO9W3NL4347CGy/9BeOiR/JuRTZhQixJEjKzTVj39kfo6+vn3Y5b8/a+BSufWoS0xUYhrpeFCHFzSzuefeFfKKs8yrsVj5IUH4M3X34GoSFBvFsZkOpDfKLuHB5LfwUXL9MdBx4iwsOQ9dYLqr68UHWIK784hqV//SfM5m7erXi0AL0/tr75HKb97i7erdyQakNcdeRrLHn6ZXRbeni3QgD4+fog++1/IHbynbxb+RVVhvjbuvP4/aPPwdxl4d0KuY5e74ed77+OO8ao64mf6uZOtLR1YOmzr1GAVchs7sbjz7yKlrYO3q38jOpCvHLNBjRcaOTdBrmJhguNWPXiRt5t/IyqQpyzoxj7yr7k3QYZxN7SL7B9ZwnvNn6kmmvi1varSEp9Cu0dnbxbITIEBQagNH8TgoOG8G5FPWfi9Zu2UYAF0t7RifWbtvFuA4BKQnzhUhO2qejricizbWeJKh5CqSLEmdl5NB9CQH19/cjMzuPdBv8Qd1t6kJt/gHcbxEG5+fth6enl2gP3EBeWHEKnuYt3G8RBVzu7UFhSwbUH7u/Y7ShQ9iwcGTEMDz4wA1OnjMfo2yIxNMwAL51O0WPy1m+1ovFKK06f+wFVh4/jk8JS/HDximLH+6SgFH+YN1Ox+oPheovtSnMb4u5fCqvNxrx2aHAgnn92CR6aP1OIObFKstkkfLxrP17/dzaaW9k/bdNptagufhdhoQbmteXgejlRUFyhSIDvGBOFgpwMLEy91+MDDABarQYPG5NRkJOhyJvOVpsNBRwvKbiG2FRUxrxmRHgYPtz8IiLChzKvLbqI8KH4cPMaRISHMa9tKipnXlMubiFuuNCImmMnmddd9+IKDAsLZl7XXQwfGoK1a1Ywr1tz7KSi190D4Rbi/D0HmdecPTMO0+MmMq/rbhKnTsSspFimNSVJQv6nfM7G/EKswNfPn5csYF7TXS1/9EHmNU2eFOJTZxtwou4c05ojI8Nx98RxTGu6symTxmFkZDjTmidOnsOpsw1Ma8rBJcRK/CcgNSWReU13lzpnOvOaPC4puIR41x72f6hxDoXYXqkKfGYeEeLab07hbP1FpjXHRY9E9KgRTGt6grGjo5i/L3e2/iKOnTjNtOZgXB7i/E/Z35VQ4oziKZQ5G7Mf44G4NMSSJKGgWIEQz2Z/becpUmezD3FB8UGXrgHt0hBX13zDfBJ1zF1jMeI3w5nW9CRRkcMRc9dYpjUvXGrCFzUnmNYciEtDvIsuJVRpvgLfZLsUeJh1My4Lcb/Vit17DzGtqdVqMO/+BKY1PdH82dOZr0lcWFKBfquVac2bcVmID1bVMp8GOHXKeJonwcCwsGDE3T2eac3m1g5UVNUyrXkzLguxEo+Z6d4wO0p8lq66Z+ySEPf09mHPgSqmNb28dJhz7zSmNT1ZSvI0eHmxfeNlz4Eq9Pb2Ma15Iy4J8YHyw8zfo0uKj4EhKIBpTU9mCArAjGmTmNa82tmFAwcPM615Iy4JsRKzm+hSgj3jnBnMa7piZpviITZ3WbC/nO36an6+PriP8XxYAsy6J5b5NmD7yr5UfIVTxUNcfKCK+boEyTOmQO/vy7QmAfT+vkieMYVpTUtPL0o+q2Za85cUD7ESXyf0gEM5SlymmT5l/y7l9RQNcVt7J8o/Z7vj0ZAAf8xMmMy0JvnJzOl3Y0iAP9OaZZVH0dau3GKRioZ4995D6O9n+9QmJXkavL1vYVqT/MTb+xbMuXcq05r9/VYU7atkWvN6ioZYiUsJJZ7zk59T4jNW8i6FYiG+fKUF1Ue+ZlozNCQICXETmNYkv5YQNwGhwYFMa1YdPo7GplamNa9RLMQFxRWw2djOKZ07Kx46Lfc1EN2el06HubPYTqyy2SQUFCuzSpBiiVDiubkSE7jJjYn0/p0iCwrWN1xG4vzlrMsSN1C+awuiItm+xMD8TNxt6cGmrB2syxI3sSlrB/NdYpmdiTvNXcjKKcR7OQWq26yPqEuIIRCPL5qHxxbNRYDe+XvSTEJcVnkUq1/aqIpNSIg4bh0eirVrVjg9e86pEFttNry07l38Z/tup5ognm3JHx/AmlVLHb7z5HCIe3v7sOL59diz/3OHDkzI9eYkT8WG1/7m0NNYh0Lcb7XisfRXUFbJdl4E8Wwzpk1C1oYX7N5TxaHz9ytvZFGACXNllUfx6vr37f49u0Oct7sMWdsK7T4QIXK8l1OAvN32Td2063Kirb0TScYnFZ1WR4ghKAClps2y36G060yc8fZHFGCiuLb2TryxOUf2z8sO8fmGS8jZUexQU4TY66PcPahvuCzrZ2WHePsnJYrsOUfIjVhtNmzfWSLrZ2WFuN9qRW7+fqeaIsReufn7Za3nJivER776Dlea25xuihB7NDa1oqZ28L0O5YW49junGyLEEXKyRyEmqnaYVYjPfc92oxhC5DovI3uyQkz3hgkvcrInM8RXnW6GEEfIyZ6XnEI9LlhjNsQQCGNKIpLiYzDm9kiEhRogSRKaW9px6mwDSg/VwFRUTm+NuIhaxkPOOn6y5k6MjGG/mfU1Oq0W6csWIu0RI/R6vwF/1mzuRuYHJmx4J5cevChEjeNxvmbngP/ONcSBQ/TYkrEaCbH2LYhysOorPLlqHTqumhXpy1OpdTwGCzG3lUh0Wq1DHxgATI+biM3rVtFCKgyJPB7cUpC+bKFDH9g10+MmIn3ZQoYdeTaRx4NLiEMMgUhbvMDpOmmPGBFiYLtmmCcSfTy4hNiYkshkpXe93g/GFFraylmijweXECfFx6iylqcSfTy4hDh61AhmtcbcHsmslqcSfTy4hDg0JEiVtTyV6OMh/D0qjYbtxtrEOTzGg0uIm1vamdVqosn6ThN9PLiEuO7M98xqnTrbwKyWpxJ9PLiEuPRQjSpreSrRx4NLiE1F5Uy2SjWbu2EqUn7vYHcn+nhwCXFLWwcys/OcrpP5gYmmZjIg+nhwuzuxcevHqKiudfj3K6prseGdXIYdeTaRx4NbiPutVixfudahD66iuhbLV66lOcUMiTwe3CfFe+l0WPHEQ0hbvGDQ5/fmLgsys/NoUryC1Dgeqp4Uf73rX4eJHjXixyc/zS3tqDvzPb2e5GJqGg9hQkzIzaj2zQ5CWKEQE+FRiInwKMREeBRiIjwKMREehZgIj0JMhEchJsKjEBPhUYiJ8CjERHgUYiI8CjERHoWYCI9CTIRHISbCoxAT4VGIifAoxER4FGIiPAoxER6FmAiPQkyEJ2uDcl4GWzSDuJZaF9GhMzERHoWYCI9CTIRHISbCoxAT4VGIifAoxER4FGIiPAoxER6FmAiPQkyERyEmwqMQE+FRiInwZIXYz9dH6T5+xd9v4N0sieupNQeyQhwSHOh0M/bicUwyMLXmQFaIx46OcroZe0WPGuHyY5KBqTUHskKcFB/jdDP24nFMMjC15kBWiI0piYPuuM6SXu8HY0qiy45H5FFrDuRdExsCkbZ4gdNNyZX2iBEhBromVhu15kD2LbYVTzyEhNgJTjUlR0LsBKQvW6j4cYhj1JgD2SH20umwJWO1on9AQuwEbMlYDZ2Wbl+rlRpzoJEkSbLnAP1WKzZu/RiZ2Xkwd1kcavKX9P6+SFu8AOnLFlKABaGmHNgd4mta2jpgKipH6aEanDxdj5bWDnRbemT9rp+vD0KCAzF2dBSS4mNgTEmka2BBqSEHDoeYELWg724iPAoxER6FmAiPQkyERyEmwqMQE+FRiInwKMREeBRiIjwKMREehZgIj0JMhEchJsL7P6Ugu3N4TUydAAAAAElFTkSuQmCC;fontSize=18;" vertex="1" parent="1">
          <mxGeometry x="608.01" y="232" width="63.98" height="60" as="geometry" />
        </mxCell>
        <mxCell id="Y5rtS3jXBM4obcAvPPzV-20" value="" style="endArrow=classic;html=1;rounded=0;fontSize=18;" edge="1" parent="1">
          <mxGeometry width="50" height="50" relative="1" as="geometry">
            <mxPoint x="450" y="286.6" as="sourcePoint" />
            <mxPoint x="540" y="286.6" as="targetPoint" />
          </mxGeometry>
        </mxCell>
        <mxCell id="Y5rtS3jXBM4obcAvPPzV-23" value="&lt;font style=&quot;font-size: 25px;&quot;&gt;$$a_{\text{cmd}}$$&lt;/font&gt;" style="text;html=1;strokeColor=none;fillColor=none;align=center;verticalAlign=middle;whiteSpace=wrap;rounded=0;fontSize=18;" vertex="1" parent="1">
          <mxGeometry x="460" y="252" width="60" height="30" as="geometry" />
        </mxCell>
        <mxCell id="Y5rtS3jXBM4obcAvPPzV-24" value="" style="endArrow=none;html=1;rounded=0;endFill=0;fontSize=18;" edge="1" parent="1">
          <mxGeometry width="50" height="50" relative="1" as="geometry">
            <mxPoint x="740" y="189" as="sourcePoint" />
            <mxPoint x="880" y="189" as="targetPoint" />
          </mxGeometry>
        </mxCell>
        <mxCell id="Y5rtS3jXBM4obcAvPPzV-25" value="" style="endArrow=none;html=1;rounded=0;endFill=0;fontSize=18;" edge="1" parent="1">
          <mxGeometry width="50" height="50" relative="1" as="geometry">
            <mxPoint x="740" y="224" as="sourcePoint" />
            <mxPoint x="850" y="224" as="targetPoint" />
          </mxGeometry>
        </mxCell>
        <mxCell id="Y5rtS3jXBM4obcAvPPzV-26" value="" style="endArrow=none;html=1;rounded=0;endFill=0;fontSize=18;" edge="1" parent="1">
          <mxGeometry width="50" height="50" relative="1" as="geometry">
            <mxPoint x="740" y="262" as="sourcePoint" />
            <mxPoint x="830" y="262" as="targetPoint" />
          </mxGeometry>
        </mxCell>
        <mxCell id="Y5rtS3jXBM4obcAvPPzV-27" value="" style="endArrow=none;html=1;rounded=0;endFill=0;fontSize=18;" edge="1" parent="1">
          <mxGeometry width="50" height="50" relative="1" as="geometry">
            <mxPoint x="740" y="289" as="sourcePoint" />
            <mxPoint x="800" y="289" as="targetPoint" />
          </mxGeometry>
        </mxCell>
        <mxCell id="Y5rtS3jXBM4obcAvPPzV-29" value="" style="endArrow=none;html=1;rounded=0;endFill=0;fontSize=18;" edge="1" parent="1">
          <mxGeometry width="50" height="50" relative="1" as="geometry">
            <mxPoint x="280" y="360" as="sourcePoint" />
            <mxPoint x="770" y="360" as="targetPoint" />
          </mxGeometry>
        </mxCell>
        <mxCell id="Y5rtS3jXBM4obcAvPPzV-30" value="" style="endArrow=none;html=1;rounded=0;endFill=0;fontSize=18;" edge="1" parent="1">
          <mxGeometry width="50" height="50" relative="1" as="geometry">
            <mxPoint x="260" y="380" as="sourcePoint" />
            <mxPoint x="800" y="380" as="targetPoint" />
          </mxGeometry>
        </mxCell>
        <mxCell id="Y5rtS3jXBM4obcAvPPzV-31" value="" style="endArrow=none;html=1;rounded=0;endFill=0;fontSize=18;" edge="1" parent="1">
          <mxGeometry width="50" height="50" relative="1" as="geometry">
            <mxPoint x="240" y="400" as="sourcePoint" />
            <mxPoint x="830" y="400" as="targetPoint" />
          </mxGeometry>
        </mxCell>
        <mxCell id="Y5rtS3jXBM4obcAvPPzV-32" value="" style="endArrow=none;html=1;rounded=0;endFill=0;fontSize=18;" edge="1" parent="1">
          <mxGeometry width="50" height="50" relative="1" as="geometry">
            <mxPoint x="220" y="420" as="sourcePoint" />
            <mxPoint x="850" y="420" as="targetPoint" />
          </mxGeometry>
        </mxCell>
        <mxCell id="Y5rtS3jXBM4obcAvPPzV-33" value="" style="endArrow=none;html=1;rounded=0;endFill=0;fontSize=18;" edge="1" parent="1">
          <mxGeometry width="50" height="50" relative="1" as="geometry">
            <mxPoint x="200" y="440" as="sourcePoint" />
            <mxPoint x="880" y="440" as="targetPoint" />
          </mxGeometry>
        </mxCell>
        <mxCell id="Y5rtS3jXBM4obcAvPPzV-34" value="" style="endArrow=none;html=1;rounded=0;endFill=0;fontSize=18;" edge="1" parent="1">
          <mxGeometry width="50" height="50" relative="1" as="geometry">
            <mxPoint x="280" y="360" as="sourcePoint" />
            <mxPoint x="280" y="330" as="targetPoint" />
          </mxGeometry>
        </mxCell>
        <mxCell id="Y5rtS3jXBM4obcAvPPzV-35" value="" style="endArrow=none;html=1;rounded=0;endFill=0;fontSize=18;" edge="1" parent="1">
          <mxGeometry width="50" height="50" relative="1" as="geometry">
            <mxPoint x="260" y="380" as="sourcePoint" />
            <mxPoint x="260" y="298" as="targetPoint" />
          </mxGeometry>
        </mxCell>
        <mxCell id="Y5rtS3jXBM4obcAvPPzV-36" value="" style="endArrow=none;html=1;rounded=0;endFill=0;fontSize=18;" edge="1" parent="1">
          <mxGeometry width="50" height="50" relative="1" as="geometry">
            <mxPoint x="240" y="400" as="sourcePoint" />
            <mxPoint x="240" y="262" as="targetPoint" />
          </mxGeometry>
        </mxCell>
        <mxCell id="Y5rtS3jXBM4obcAvPPzV-37" value="" style="endArrow=none;html=1;rounded=0;endFill=0;fontSize=18;" edge="1" parent="1">
          <mxGeometry width="50" height="50" relative="1" as="geometry">
            <mxPoint x="220" y="420" as="sourcePoint" />
            <mxPoint x="220" y="224" as="targetPoint" />
          </mxGeometry>
        </mxCell>
        <mxCell id="Y5rtS3jXBM4obcAvPPzV-38" value="" style="endArrow=none;html=1;rounded=0;endFill=0;fontSize=18;" edge="1" parent="1">
          <mxGeometry width="50" height="50" relative="1" as="geometry">
            <mxPoint x="200" y="440" as="sourcePoint" />
            <mxPoint x="200" y="189" as="targetPoint" />
          </mxGeometry>
        </mxCell>
        <mxCell id="Y5rtS3jXBM4obcAvPPzV-39" value="" style="endArrow=none;html=1;rounded=0;endFill=0;fontSize=18;" edge="1" parent="1">
          <mxGeometry width="50" height="50" relative="1" as="geometry">
            <mxPoint x="770" y="360" as="sourcePoint" />
            <mxPoint x="770" y="329" as="targetPoint" />
          </mxGeometry>
        </mxCell>
        <mxCell id="Y5rtS3jXBM4obcAvPPzV-40" value="" style="endArrow=none;html=1;rounded=0;endFill=0;fontSize=18;" edge="1" parent="1">
          <mxGeometry width="50" height="50" relative="1" as="geometry">
            <mxPoint x="800" y="380" as="sourcePoint" />
            <mxPoint x="800" y="289" as="targetPoint" />
          </mxGeometry>
        </mxCell>
        <mxCell id="Y5rtS3jXBM4obcAvPPzV-41" value="" style="endArrow=none;html=1;rounded=0;endFill=0;fontSize=18;" edge="1" parent="1">
          <mxGeometry width="50" height="50" relative="1" as="geometry">
            <mxPoint x="830" y="399" as="sourcePoint" />
            <mxPoint x="830" y="262" as="targetPoint" />
          </mxGeometry>
        </mxCell>
        <mxCell id="Y5rtS3jXBM4obcAvPPzV-42" value="" style="endArrow=none;html=1;rounded=0;endFill=0;fontSize=18;" edge="1" parent="1">
          <mxGeometry width="50" height="50" relative="1" as="geometry">
            <mxPoint x="850" y="420" as="sourcePoint" />
            <mxPoint x="850" y="224" as="targetPoint" />
          </mxGeometry>
        </mxCell>
        <mxCell id="Y5rtS3jXBM4obcAvPPzV-43" value="" style="endArrow=none;html=1;rounded=0;endFill=0;fontSize=18;" edge="1" parent="1">
          <mxGeometry width="50" height="50" relative="1" as="geometry">
            <mxPoint x="880" y="440" as="sourcePoint" />
            <mxPoint x="880" y="189" as="targetPoint" />
          </mxGeometry>
        </mxCell>
        <mxCell id="Y5rtS3jXBM4obcAvPPzV-44" value="&lt;font style=&quot;font-size: 26px;&quot;&gt;Car&lt;/font&gt;" style="text;html=1;strokeColor=none;fillColor=none;align=center;verticalAlign=middle;whiteSpace=wrap;rounded=0;fontSize=18;" vertex="1" parent="1">
          <mxGeometry x="470" y="82" width="320" height="30" as="geometry" />
        </mxCell>
        <mxCell id="Y5rtS3jXBM4obcAvPPzV-46" value="" style="endArrow=none;html=1;rounded=0;endFill=0;fontSize=18;" edge="1" parent="1">
          <mxGeometry width="50" height="50" relative="1" as="geometry">
            <mxPoint x="740" y="329" as="sourcePoint" />
            <mxPoint x="770" y="329" as="targetPoint" />
          </mxGeometry>
        </mxCell>
        <mxCell id="Y5rtS3jXBM4obcAvPPzV-49" value="&lt;font style=&quot;font-size: 26px;&quot;&gt;$$\textbf{+}$$&lt;/font&gt;" style="text;html=1;strokeColor=none;fillColor=none;align=center;verticalAlign=middle;whiteSpace=wrap;rounded=0;fontSize=18;" vertex="1" parent="1">
          <mxGeometry x="470" y="109" width="320" height="30" as="geometry" />
        </mxCell>
        <mxCell id="Y5rtS3jXBM4obcAvPPzV-50" value="&lt;font style=&quot;font-size: 27px;&quot;&gt;Onboard Sensors&lt;/font&gt;" style="text;html=1;strokeColor=none;fillColor=none;align=center;verticalAlign=middle;whiteSpace=wrap;rounded=0;fontSize=18;" vertex="1" parent="1">
          <mxGeometry x="480" y="129" width="320" height="40" as="geometry" />
        </mxCell>
      </root>
    </mxGraphModel>
  </diagram>
</mxfile>
